<!-- Generated by IcoMoon.io -->
<svg version="1.1" xmlns="http://www.w3.org/2000/svg" width="32" height="32" viewBox="0 0 32 32">
<title>adobelightroom</title>
<path fill="#add5ec" d="M0 0.4v31.2h32v-31.2h-32zM1.333 1.733h29.333v28.533h-29.333v-28.533zM8.864 22.167c-0.155 0-0.197-0.067-0.197-0.197v-14.325c0-0.111 0.044-0.176 0.155-0.176h2.112c0.112 0 0.133 0.049 0.133 0.16v12.347h5.5c0.111 0 0.141 0.044 0.12 0.155l-0.331 1.893c-0.021 0.109-0.088 0.153-0.197 0.153h-7.292zM18.733 13.532c0-0.16 0-0.555-0.067-1.303 0-0.111 0.024-0.133 0.112-0.176 0.813-0.328 2.744-0.923 4.9-0.923 0.107 0 0.149 0.023 0.149 0.133v1.936c0 0.112-0.044 0.133-0.155 0.133-0.837-0.044-2.085 0.067-2.547 0.264v8.413c0 0.109-0.044 0.153-0.155 0.153h-2.093c-0.107 0-0.152-0.044-0.152-0.155v-8.48z"></path>
</svg>
