<svg version="1" xmlns="http://www.w3.org/2000/svg" viewBox="0 0 306 80"  preserveAspectRatio="xMidYMid meet"><path fill="#000" d="M306 13V0H145l-13 26-14-26H0v13h97L70 67H0v13h119v-1l7-13-7-14-8 15H84l27-54 18 33 3 6 16 28h-2 160V67H196l-29-54h139zM182 67h-27l-16-28 14-26 29 54z"/><g fill="#000"><path d="M148 86h6l9 2c2 3 4 7 4 12 0 6-2 11-5 13-2 2-5 3-9 3h-5V86zm6 25h1c3 0 6-3 6-11 0-6-2-10-6-10h-1v21zM189 100c0 12-5 16-10 16-7 0-10-7-10-15 0-9 3-16 10-16s10 8 10 15zm-14 1c0 7 1 10 4 10 2 0 3-4 3-11 0-5 0-10-3-10s-4 4-4 11zM211 105V95l-2 10-3 10h-4l-3-10-2-10v10l-1 11h-5l2-30h7l2 11 2 10 2-10 3-11h6l2 30h-5l-1-11zM227 86v30h-6V86h6zM233 116V86h5l5 12 3 8V86h5v30h-6l-4-12-3-9v21h-5zM262 86v30h-6V86h6zM272 109l-1 7h-6l7-30h7l6 30h-6l-1-7h-6zm5-5l-1-6-1-7-1 7-1 6h4zM288 86h6v13l2-4 4-9h6l-6 13 7 17h-7l-4-13-2 3v10h-6V86z"/></g><g fill="#000"><path d="M19 86v30h-1V90v-1l-8 21v1l-1-1-8-21v27H0V86h2l7 21 1 2a18 18 0 0 1 0-2l8-21h1zM39 116h-1l-2-9H26l-2 9h-2l8-30h1l8 30zm-4-11l-4-15v-2a23 23 0 0 1-1 2l-3 15h8zM53 88h-7v28h-1V88h-7v-2h15v2zM68 114v2H56V86h12v2H58v12h8v2h-8v12h10zM79 115l2-1 2-2 1-4 1-3V86h1v23l-2 4-2 3h-6l-2-3-2-4V86h1v22l2 4 1 2 3 1zM101 89l-1 1v-1h-1l-1-1-2-1-1 1-2 1-1 2a9 9 0 0 0 1 5l1 1 1 2a60 60 0 0 0 4 2 7 7 0 0 1 2 3l1 3-1 4-1 3-2 2h-2l-4-1-2-3 1-1v1l1 1a5 5 0 0 0 2 1l2 1 2-1 1-1 1-3v-2-3l-1-2-2-1a45 45 0 0 0-3-2 6 6 0 0 1-3-4v-3-3l1-2 2-2 2-1 3 1 2 2v1zM118 87l-12 27h12v2h-14v-1l12-27h-12v-2h14v1z"/></g></svg>