<?xml version="1.0" encoding="utf-8"?>
<!-- Generator: Adobe Illustrator 23.0.2, SVG Export Plug-In . SVG Version: 6.00 Build 0)  -->
<svg version="1.1" id="Layer_1" xmlns="http://www.w3.org/2000/svg" xmlns:xlink="http://www.w3.org/1999/xlink" x="0px" y="0px"
	 viewBox="0 0 126.6 79.3" style="enable-background:new 0 0 126.6 79.3;" xml:space="preserve">
<style type="text/css">
	.st0{fill:#FFFFFF;}
</style>
<path class="st0" d="M120.3,79.3l6.3-12.3h0L97.1,13h0L90,0.1h0h-0.5h-8.7H76h-0.3L62.4,25.9L48.3,0.1h-0.2h-4.9V0l-9,0L22.2,23.7
	c0,0,0,0,0,0L0,66.9h0l6.7,12.3l42.2,0l6.9-13.4l-7.1-13.1l-7.2,14.1l-27.6,0l27.6-53.8l18,33l3.3,6.2l0,0l14.8,27L120.3,79.3z
	 M82.9,13H83l29.5,54l-27.7,0L69.6,39L82.9,13z"/>
</svg>
